<?xml version="1.0" encoding="utf-8"?>
<!-- Generator: Adobe Illustrator 19.1.0, SVG Export Plug-In . SVG Version: 6.00 Build 0)  -->
<svg version="1.1" id="Layer_1" xmlns:sketch="http://www.bohemiancoding.com/sketch/ns"
	 xmlns="http://www.w3.org/2000/svg" xmlns:xlink="http://www.w3.org/1999/xlink" x="0px" y="0px" viewBox="-365 285 60 43"
	 enable-background="new -365 285 60 43" xml:space="preserve">
<title>10 - Mail (Outline)</title>
<desc>Created with Sketch.</desc>
<g id="Page-1" sketch:type="MSPage">
	<g id="_x31_0---Mail-_x28_Outline_x29_" transform="translate(1.000000, 1.000000)" sketch:type="MSLayerGroup">
		
			<path id="Path" sketch:type="MSShapeGroup" fill="none" stroke="#283039" stroke-width="2" stroke-linecap="round" stroke-linejoin="round" d="
			M-365,285l27.1,27.3c1,1,2.7,1,3.7,0L-307,285L-365,285z"/>
		
			<path id="Path_1_" sketch:type="MSShapeGroup" fill="none" stroke="#283039" stroke-width="2" stroke-linecap="round" stroke-linejoin="round" d="
			M-365,326h58v-41h-58V326z"/>
		
			<path id="Path_2_" sketch:type="MSShapeGroup" fill="none" stroke="#283039" stroke-width="2" stroke-linecap="round" stroke-linejoin="round" d="
			M-365,324.7v-38.4c0-0.5,0.6-0.8,1-0.5l20,20.2l-20,19.2C-364.4,325.5-365,325.2-365,324.7L-365,324.7z"/>
		
			<path id="Path_3_" sketch:type="MSShapeGroup" fill="none" stroke="#283039" stroke-width="2" stroke-linecap="round" stroke-linejoin="round" d="
			M-307,324.7v-38.4c0-0.5-0.6-0.8-1-0.5l-20,20.2l20,19.2C-307.6,325.5-307,325.2-307,324.7L-307,324.7z"/>
	</g>
</g>
</svg>
