<?xml version="1.0" encoding="utf-8"?>
<!-- Generator: Adobe Illustrator 18.1.1, SVG Export Plug-In . SVG Version: 6.00 Build 0)  -->
<svg version="1.1" id="Layer_1" xmlns="http://www.w3.org/2000/svg" xmlns:xlink="http://www.w3.org/1999/xlink" x="0px" y="0px"
	 viewBox="0 0 792 612" enable-background="new 0 0 792 612" xml:space="preserve">
<g>
	<rect x="95.6" y="5.9" width="600.2" height="600.2"/>
	<g>
		<g>
			<g>
				<rect x="215.7" y="454" fill="#FFFFFF" width="360.1" height="28.5"/>
				<path fill="#FFFFFF" d="M282.3,158c22.6,0,33.2,10.7,47.6,24.9c14.2,14.2,32.1,33.2,66.6,33.2s52.3-17.9,66.6-33.2
					c13-14.2,23.7-24.9,47.6-24.9c22.6,0,47.6,21.4,66.6,43.9v-41.6c-22.6-20.2-45.2-30.9-66.6-30.9c-35.7,0-53.5,19-67.8,33.2
					c-13,13-23.7,24.9-45.2,24.9c-21.5,0-32.1-10.7-45.2-24.9c-14.3-15.4-32.2-33.2-67.8-33.2c-21.4,0-43.9,10.7-66.6,30.9v40.4
					C234.7,179.4,259.6,158,282.3,158z"/>
				<path fill="#FFFFFF" d="M331,262.7c14.2,11.9,32.1,23.7,64.1,23.7s49.9-13,64.1-23.7c13-10.7,23.7-19,48.7-19
					c23.7,0,47.6,15.5,66.6,30.9v-35.7c-20.2-13-42.8-23.7-66.6-23.7c-34.4,0-51.1,13-65.4,24.9c-13,10.7-23.7,17.9-47.6,17.9
					c-23.7,0-34.4-8.3-47.6-17.9c-15.5-11.9-32.1-24.9-65.4-24.9c-23.7,0-47.6,10.7-66.6,23.7v35.7c17.9-14.2,42.8-30.9,66.6-30.9
					C307.2,243.6,317.9,252,331,262.7z"/>
				<path fill="#FFFFFF" d="M333.4,337.5c14.2,7.2,30.9,15.5,63,15.5s47.6-8.3,63-15.5c13-7.2,24.9-13,51.1-13
					c23.7,0,47.6,9.5,66.6,20.2v-32.1c-20.2-9.5-42.8-16.7-66.6-16.7c-32.1,0-48.7,8.3-64.1,16.7c-13,7.2-24.9,13-49.9,13
					s-35.7-6-49.9-13c-14.2-7.2-30.9-16.7-64.1-16.7c-23.7,0-47.6,7.2-66.6,16.7v32.1c19-10.7,42.8-20.2,66.6-20.2
					C308.4,324.4,319.1,330.3,333.4,337.5z"/>
				<path fill="#FFFFFF" d="M335.7,411.2c14.2,3.5,29.7,8.3,59.4,8.3s45.2-3.5,59.4-8.3c13-3.5,26.2-7.2,53.5-7.2
					c23.7,0,47.6,4.7,66.6,9.5v-29.7c-19-4.7-42.8-9.5-66.6-9.5c-30.9,0-46.4,3.5-60.6,8.3c-13,3.5-26.2,7.2-52.3,7.2
					s-39.2-3.5-52.3-7.2c-14.2-3.5-29.7-8.3-60.6-8.3c-23.7,0-47.6,3.5-66.6,9.5v29.7c19-4.7,42.8-9.5,66.6-9.5
					C309.5,405.3,322.7,407.6,335.7,411.2z"/>
			</g>
		</g>
	</g>
</g>
</svg>
