<?xml version="1.0" encoding="utf-8"?>
<!-- Generator: Adobe Illustrator 18.1.1, SVG Export Plug-In . SVG Version: 6.00 Build 0)  -->
<svg version="1.1" id="Layer_1" xmlns="http://www.w3.org/2000/svg" xmlns:xlink="http://www.w3.org/1999/xlink" x="0px" y="0px"
	 viewBox="0 0 48.2 63.4" enable-background="new 0 0 48.2 63.4" xml:space="preserve">
<g>
	<g>
		<path d="M27.3,17.4L27.3,17.4l-6.6,0v7h6.6v0c1.9,0,3.5-1.6,3.5-3.5C30.8,18.9,29.2,17.4,27.3,17.4z M24.2,1.1
			C11.3,1.1,0.9,11.5,0.9,24.4s10.4,23.3,23.3,23.3s23.3-10.4,23.3-23.3S37.1,1.1,24.2,1.1z M27.3,29L27.3,29l-6.6,0v7H16V12.7
			l11.3,0v0c4.5,0,8.2,3.6,8.2,8.2C35.5,25.4,31.8,29,27.3,29z"/>
	</g>
	<g>
		<path d="M6,62.7v-6.5H3.7v-1.5h6.4v1.5H7.7v6.5H6z"/>
		<path d="M9.6,59.8c0-1.6,1.2-3,3.1-3c1.9,0,3.1,1.4,3.1,3c0,1.6-1.2,3.1-3.1,3.1C10.7,62.9,9.6,61.5,9.6,59.8z M14.1,59.8
			c0-0.9-0.5-1.7-1.5-1.7c-1,0-1.5,0.8-1.5,1.7c0,0.9,0.5,1.7,1.5,1.7C13.6,61.5,14.1,60.7,14.1,59.8z"/>
		<path d="M16.9,62.7v-5.8h1.5v0.8c0.4-0.5,1.1-0.9,1.9-0.9v1.5c-0.1,0-0.2,0-0.4,0c-0.5,0-1.2,0.3-1.4,0.7v3.8H16.9z"/>
		<path d="M20.8,59.8c0-1.6,1.2-3,3.1-3c1.9,0,3.1,1.4,3.1,3c0,1.6-1.2,3.1-3.1,3.1C22,62.9,20.8,61.5,20.8,59.8z M25.4,59.8
			c0-0.9-0.5-1.7-1.5-1.7c-1,0-1.5,0.8-1.5,1.7c0,0.9,0.5,1.7,1.5,1.7C24.8,61.5,25.4,60.7,25.4,59.8z"/>
		<path d="M32,62.7v-3.5c0-0.8-0.4-1.1-1.1-1.1c-0.6,0-1.1,0.3-1.3,0.7v3.9h-1.5v-5.8h1.5v0.7c0.4-0.4,1.1-0.9,2-0.9
			c1.3,0,1.9,0.7,1.9,1.9v4.1H32z"/>
		<path d="M35.4,61.3v-3h-1v-1.3h1v-1.6h1.5v1.6h1.2v1.3h-1.2v2.6c0,0.4,0.2,0.7,0.5,0.7c0.2,0,0.4-0.1,0.5-0.2l0.3,1.2
			c-0.2,0.2-0.6,0.4-1.3,0.4C36,62.9,35.4,62.3,35.4,61.3z"/>
		<path d="M38.8,59.8c0-1.6,1.2-3,3.1-3c1.9,0,3.1,1.4,3.1,3c0,1.6-1.2,3.1-3.1,3.1C39.9,62.9,38.8,61.5,38.8,59.8z M43.3,59.8
			c0-0.9-0.5-1.7-1.5-1.7c-1,0-1.5,0.8-1.5,1.7c0,0.9,0.5,1.7,1.5,1.7C42.8,61.5,43.3,60.7,43.3,59.8z"/>
	</g>
</g>
</svg>
