<?xml version="1.0" encoding="utf-8"?>
<!-- Generator: Adobe Illustrator 18.1.1, SVG Export Plug-In . SVG Version: 6.00 Build 0)  -->
<svg version="1.1" id="Layer_1" xmlns="http://www.w3.org/2000/svg" xmlns:xlink="http://www.w3.org/1999/xlink" x="0px" y="0px"
	 viewBox="0 0 145 42" enable-background="new 0 0 145 42" xml:space="preserve">
<g>
	<g>
		<g>
			<path fill-rule="evenodd" clip-rule="evenodd" d="M31.8,20.1v13.4L27.5,34v-4.5L22.7,30v4.5L18.4,35V21.7l2.7-3l0,0l8.1-0.9
				L31.8,20.1z M27.4,21.5L22.7,22v4.7l4.7-0.5L27.4,21.5L27.4,21.5L27.4,21.5z"/>
			<path fill-rule="evenodd" clip-rule="evenodd" d="M143.5,8.1v13.4l-4.4,0.5v-4.5l-4.7,0.5v4.5l-4.4,0.5V9.6l2.7-3l0,0l8.1-0.9
				L143.5,8.1z M139,9.4l-4.6,0.5v4.7l4.7-0.5L139,9.4L139,9.4L139,9.4z"/>
			<path fill-rule="evenodd" clip-rule="evenodd" d="M48.7,18.2v11L45.9,32l-10.7,1.2V17.2l0,0L46,16L48.7,18.2z M44.2,19.7
				l-4.6,0.5v9.1l4.7-0.5L44.2,19.7L44.2,19.7L44.2,19.7z"/>
			<polygon fill-rule="evenodd" clip-rule="evenodd" points="51.8,15.4 56.1,15 56.1,30.9 51.8,31.3 51.8,15.4 			"/>
			<path fill-rule="evenodd" clip-rule="evenodd" d="M59.7,28V17l2.7-2.8l0,0l8.2-0.9l2.7,2.2v11l-2.7,2.8l-8.2,0.9L59.7,28z
				 M68.9,17l-4.8,0.5v9.1l4.9-0.5L68.9,17L68.9,17L68.9,17z"/>
			<path fill-rule="evenodd" clip-rule="evenodd" d="M90.4,24.7v-11l2.7-2.8l0,0l8.2-0.9l2.7,2.2v11l-2.7,2.8l-8.2,0.9L90.4,24.7z
				 M99.6,13.7l-4.8,0.5v9.1l4.9-0.5L99.6,13.7L99.6,13.7L99.6,13.7z"/>
			<polygon fill-rule="evenodd" clip-rule="evenodd" points="75,12.9 88.1,11.5 88.1,14.9 83.7,15.4 83.7,27.9 79.4,28.4 79.4,15.8 
				75,16.3 75,12.9 			"/>
			<path fill-rule="evenodd" clip-rule="evenodd" d="M119.5,10.6v6.1l-2.5,2.6l-6.4,0.7v5l-4.3,0.5V9.5l0,0l10.3-1.1L119.5,10.6z
				 M115,12l-4.3,0.5v4.2l4.5-0.5V12L115,12L115,12z"/>
			<g>
				<polygon fill-rule="evenodd" clip-rule="evenodd" points="122.1,7.8 126.4,7.3 126.4,23.3 122.1,23.7 122.1,7.8 				"/>
			</g>
			<path fill-rule="evenodd" clip-rule="evenodd" d="M15.4,35.3l-3.1-5.1l2.1-2.2v-6.1l-2.8-2.2L1.2,20.9v15.9l4.3-0.5v-5L8.1,31
				l2.9,4.7L15.4,35.3z M5.5,23.8l4.3-0.5l0.2,0v4.2L5.5,28V23.8z"/>
		</g>
		<polygon points="143.5,1.9 1.2,17.3 1.2,16.4 143.5,1 		"/>
		<polygon points="143.5,25.6 1.2,41 1.2,40.1 143.5,24.7 		"/>
	</g>
	<g>
		<path d="M109,36.9v-4.1l2.2-0.2v0.6l-1.4,0.2v1l1.3-0.1v0.6l-1.3,0.1v1.9L109,36.9z"/>
		<path d="M113.6,34.6v1.8l-0.8,0.1v-4.1l1.5-0.2c0.7-0.1,1.2,0.1,1.2,0.9c0,0.5-0.1,0.9-0.6,1.1v0c0.5,0,0.6,0.3,0.6,0.7
			c0,0.2,0,1.2,0.2,1.3v0.1l-0.9,0.1c-0.1-0.3-0.1-0.8-0.1-1c0-0.3,0-0.6-0.3-0.7c-0.2,0-0.4,0-0.7,0L113.6,34.6z M113.6,34l0.6-0.1
			c0.3,0,0.5-0.2,0.5-0.6c0-0.5-0.2-0.5-0.5-0.5l-0.6,0.1V34z"/>
		<path d="M117.2,33.6c0-1.1,0.1-1.9,1.4-2c1.2-0.1,1.3,0.6,1.4,1.7v0.6c0,1.1-0.1,1.9-1.4,2.1c-1.3,0.1-1.4-0.7-1.4-1.8V33.6z
			 M118,34.5c0,0.3,0,0.9,0.6,0.8c0.6-0.1,0.6-0.6,0.6-1v-1.1c0-0.3,0-1.1-0.6-1c-0.6,0.1-0.6,0.8-0.6,1.1V34.5z"/>
		<path d="M122.5,35.4l-0.8,0.1v-4.1l1.2-0.1l0.4,1.9c0.1,0.3,0.1,0.6,0.1,0.9l0,0c0-0.4,0.1-0.7,0.1-1l0.4-2l1.2-0.1v4.1l-0.8,0.1
			v-1.3c0-0.8,0-1.6,0.1-2.5l0,0l-0.8,3.9l-0.5,0.1l-0.8-3.7l0,0c0,0.8,0.1,1.6,0.1,2.5V35.4z"/>
	</g>
	<g>
		<g>
			<g>
				<g>
					<path d="M140.2,29.6l-1.5,2.2l1.5,1.9c0.5-0.6,0.9-1.3,0.9-2.1C141.1,30.7,140.7,30,140.2,29.6z"/>
				</g>
				<g>
					<path d="M137.6,31.7l0.2,0.2C137.8,31.9,137.7,31.8,137.6,31.7z"/>
				</g>
				<g>
					<g>
						<path d="M138.3,31.2l-1.2-1.9c0.4-0.2,0.8-0.3,1.2-0.4c0.5,0,0.9,0,1.3,0.2L138.3,31.2z M137,34.4c0.4,0.1,0.8,0.2,1.2,0.2
							c0.5,0,0.9-0.2,1.3-0.4l-1.2-1.8L137,34.4z M134.2,32.3c0.2,0,0.4-0.1,0.5-0.1c0.2-0.1,0.3-0.1,0.4-0.3
							c0.1-0.1,0.2-0.2,0.2-0.4c0-0.1,0.1-0.3,0.1-0.5c0-0.2,0-0.3-0.1-0.4c0-0.1-0.1-0.2-0.2-0.3c-0.1-0.1-0.2-0.1-0.3-0.1
							c-0.1,0-0.3,0-0.5,0l-0.8,0.1l0,0.5l0,1.5l0.3,0L134.2,32.3z M133.8,33l-0.2,0l0,0.5l0,1.4c0.3,0.1,0.6,0.1,0.9,0.1
							c0.5,0,1-0.2,1.4-0.5l-1.3-1.6L133.8,33z M137.6,31.7c-0.4-0.5-1.1-1.6-1.3-1.8c-0.5-0.4-1.2-0.7-1.9-0.6
							c-0.5,0-0.9,0.2-1.3,0.5l1.2-0.1c0.3,0,0.5,0,0.7,0c0.2,0,0.4,0.1,0.5,0.2c0.2,0.1,0.3,0.3,0.4,0.4c0.1,0.2,0.1,0.4,0.1,0.7
							c0,0.4-0.1,0.7-0.3,1c-0.2,0.3-0.4,0.5-0.7,0.7l1.2,1.4l0,0l0,0l1.5-2.1L137.6,31.7z M129.4,30.4L129.4,30.4
							c-0.7,0.6-1.2,1.4-1.2,2.4c0,0.9,0.4,1.7,1.1,2.2c0,0,0,0,0,0L129.4,30.4L129.4,30.4z M131.3,32.6c0.2-0.1,0.3-0.1,0.4-0.3
							c0.1-0.1,0.2-0.2,0.2-0.4c0-0.1,0.1-0.3,0.1-0.5c0-0.2,0-0.3-0.1-0.4c0-0.1-0.1-0.2-0.2-0.3c-0.1-0.1-0.2-0.1-0.3-0.1
							c-0.1,0-0.3,0-0.5,0l-0.8,0.1l0,2l0.7-0.1C130.9,32.6,131.1,32.6,131.3,32.6z M132.7,30c-0.5-0.3-1-0.5-1.7-0.4
							c-0.5,0-0.9,0.2-1.3,0.4l1-0.1c0.3,0,0.5,0,0.7,0c0.2,0,0.4,0.1,0.5,0.2c0.2,0.1,0.3,0.3,0.4,0.4c0.1,0.2,0.1,0.4,0.1,0.7
							c0,0.4-0.1,0.7-0.3,1c-0.1,0.2-0.2,0.3-0.3,0.4c-0.1,0.1-0.3,0.2-0.5,0.3c-0.3,0.1-0.6,0.2-0.6,0.2l-0.9,0.1l0,1.9
							c0.3,0.1,0.6,0.1,1,0.1c0.6-0.1,1.2-0.3,1.7-0.7c0,0,0,0,0,0c0,0,0,0,0,0c0,0,0,0,0,0c0,0,0.1-0.1,0.1-0.1l0-4.5
							C132.8,30,132.7,30,132.7,30z"/>
					</g>
				</g>
				<path d="M142.3,31.5c0-1.3-0.8-2.2-1.3-2.6l-0.1,0.1c0.3,0.5,0.8,1.5,0.8,2.4c0,0.8-0.5,1.8-0.9,2.4l0.1,0.2
					C141.5,33.5,142.3,32.5,142.3,31.5z"/>
				<path d="M143.8,31.4c0-1.3-0.8-2.2-1.3-2.6l-0.1,0.1c0.3,0.5,0.8,1.5,0.8,2.4c0,0.8-0.5,1.8-0.9,2.4l0.1,0.2
					C143,33.3,143.8,32.4,143.8,31.4z"/>
			</g>
		</g>
	</g>
</g>
</svg>
