<?xml version="1.0" encoding="utf-8"?>
<!-- Generator: Adobe Illustrator 18.1.1, SVG Export Plug-In . SVG Version: 6.00 Build 0)  -->
<svg version="1.1" id="Layer_1" xmlns="http://www.w3.org/2000/svg" xmlns:xlink="http://www.w3.org/1999/xlink" x="0px" y="0px"
	 viewBox="0 0 106 58" enable-background="new 0 0 106 58" xml:space="preserve">
<g>
	<g>
		<g>
			<g>
				<path d="M19.6,4.3c0-1.8-0.3-1.8-0.6-1.8c-0.4,0-0.7,0.1-1.2,0.1c-0.4,0-0.7-0.3-0.7-0.7c0-0.5,0.5-0.8,1-0.8
					c0.7,0,1,0.2,1.4,0.2c0.6,0,0.8-0.2,1.2-0.2c0.5,0,0.6,0.3,0.6,1.1v10.9c0,1.6,0.3,1.8,0.6,1.8c0.4,0,0.7-0.1,1-0.1
					c0.4,0,0.7,0.3,0.7,0.7c0,0.5-0.5,0.8-0.9,0.8c-0.7,0-1.2-0.2-2.2-0.2c-1,0-1.5,0.2-2.3,0.2c-0.5,0-0.9-0.3-0.9-0.8
					c0-0.4,0.3-0.7,0.7-0.7c0.3,0,0.6,0.1,1,0.1c0.5,0,0.6-0.6,0.6-1.8V4.3z"/>
				<path d="M33,12.8c0,0.7-0.2,2.3,0.8,2.3c0.9,0,0.8-1.4,0.8-2c0-0.6-0.1-1.3,0.7-1.3c0.6,0,0.8,0.4,0.8,0.9c0,1.6,0,2.4-0.5,3
					c-0.4,0.6-1.2,0.8-1.9,0.8c-1.1,0-2-0.5-2.2-1.6c-0.8,1.2-2.1,1.6-3.5,1.6c-0.9,0-1.8-0.2-2.6-0.6c-0.9-0.6-1.4-1.5-1.4-2.6
					c0-1.2,0.5-2.2,1.5-2.7c0.9-0.6,1.8-0.6,2.9-0.8c1.3-0.1,3-0.1,3-1.7c0-1.4-1.2-1.9-2.4-1.9c-0.6,0-1.2,0.2-1.7,0.5
					c-0.2,0.1-0.5,0.3-0.5,0.6c0,0.1,0.5,0.1,0.5,0.9c0,0.6-0.6,1-1.2,1c-0.8,0-1.3-0.6-1.3-1.4c0-0.9,0.6-1.7,1.3-2.2
					c0.8-0.5,1.9-0.8,2.8-0.8c1,0,2.1,0.2,3,0.9c1.1,0.8,1.2,2,1.2,3.3L33,12.8z M28,15.2c1,0,2.1-0.3,2.7-1.1
					c0.5-0.7,0.5-1.3,0.5-2.1c0-0.5,0-0.9,0-1.4c-0.8,0.8-2,0.8-3,0.9c-1.1,0.1-2.5,0.4-2.5,1.9C25.8,14.6,26.9,15.2,28,15.2z"/>
				<path d="M46.5,13.1c0,1.5,0.2,1.8,0.6,1.8c0.4,0,0.7-0.1,1-0.1c0.4,0,0.7,0.3,0.7,0.7c0,0.5-0.3,0.8-0.7,0.8
					c-0.4,0-0.8-0.2-1.3-0.2c-0.5,0-0.6,0.2-1.2,0.2c-0.6,0-0.8-0.2-0.8-1v-0.2h0c-0.7,1.1-2,1.6-3.3,1.6c-3.4,0-5-2.8-5-6
					c0-3,1.6-5.8,4.9-5.8c1.3,0,2.6,0.4,3.3,1.6h0V4.3c0-1.6-0.2-1.8-0.6-1.8c-0.4,0-0.7,0.1-1,0.1c-0.4,0-0.7-0.3-0.7-0.7
					c0-0.5,0.4-0.8,0.8-0.8c0.6,0,0.9,0.2,1.5,0.2c0.6,0,0.9-0.2,1.3-0.2c0.2,0,0.4,0.2,0.4,0.9V13.1z M38.4,10.8
					c0,2.1,0.9,4.4,3.3,4.4c1.1,0,2.2-0.5,2.7-1.5c0.4-0.9,0.5-2,0.5-3c0-1-0.1-2.3-0.7-3.1c-0.6-0.9-1.5-1.2-2.6-1.2
					C39.1,6.3,38.4,8.7,38.4,10.8z"/>
				<path d="M51.8,8.3c0-1.5-0.2-1.8-0.6-1.8c-0.4,0-0.7,0.1-1,0.1c-0.4,0-0.7-0.3-0.7-0.7c0-0.5,0.3-0.8,0.8-0.8
					c0.6,0,0.9,0.2,1.4,0.2c0.5,0,0.8-0.2,1.2-0.2c0.5,0,0.6,0.5,0.6,0.9v8c0,0.5,0.2,0.9,0.6,0.9c0.2,0,0.5-0.2,0.9-0.1
					c0.4,0,0.7,0.3,0.7,0.7c0,0.5-0.5,0.8-0.9,0.8c-0.7,0-1.3-0.2-2.2-0.2c-0.9,0-1.5,0.2-2.3,0.2c-0.4,0-0.7-0.4-0.7-0.8
					c0-0.4,0.3-0.7,0.7-0.7c0.3,0,0.6,0.1,1,0.1c0.5,0,0.6-0.5,0.6-1.8V8.3z M53.5,2.8c0,0.7-0.6,1.2-1.2,1.2C51.6,4,51,3.5,51,2.8
					c0-0.7,0.6-1.2,1.2-1.2C52.9,1.5,53.5,2.1,53.5,2.8z"/>
				<path d="M58.1,11c-0.1,2.2,1.1,4.2,3.5,4.2c1.5,0,2.6-0.7,3-2.1c0.1-0.5,0.2-0.9,0.8-0.9c0.5,0,0.9,0.3,0.9,0.8
					c0,0.9-0.6,1.9-1.3,2.5c-0.9,0.9-2.3,1.2-3.5,1.2c-3.4,0-5.1-2.5-5.1-5.7c0-1.5,0.4-3,1.3-4.2c1-1.2,2.4-1.9,4-1.9
					c2.9,0,4.9,2.1,4.9,5c0,1.1,0,1.2-1,1.2H58.1z M64.6,9.4c-0.1-1.8-1.1-3.1-3-3.1c-1.9,0-3.2,1.3-3.3,3.1H64.6z"/>
				<path d="M68.5,8.3c0-2.3,2.1-3.5,4.2-3.5c0.9,0,1.8,0.2,2.5,0.8c-0.1-0.5,0.1-0.9,0.7-0.9c0.5,0,0.7,0.3,0.7,0.7
					c0,0.5-0.1,1.1-0.1,1.6c0,0.5,0.1,1.1,0.1,1.6c0,0.5-0.3,0.8-0.8,0.8c-0.4,0-0.7-0.3-0.7-1c0-0.8-0.1-1-0.5-1.3
					c-0.6-0.4-1.3-0.8-2-0.8c-1.1,0-2.4,0.6-2.4,1.9c0,1.1,0.7,1.4,2.6,1.7c2.9,0.4,4.5,1,4.5,3.3c0,2.4-2.3,3.5-4.5,3.5
					c-1.1,0-2.3-0.3-3.1-1c0.1,0.8-0.3,1.2-0.7,1.2c-0.6,0-0.8-0.4-0.8-0.9c0-0.6,0.2-1.2,0.2-1.8c0-0.6-0.2-1.1-0.2-1.7
					c0-0.5,0.3-0.8,0.8-0.8c0.4,0,0.6,0.2,0.7,0.7c0.1,1.3,0.1,1.5,0.6,1.9c0.7,0.6,2,0.9,2.9,0.9c0.6,0,1.3-0.1,1.8-0.5
					c0.4-0.3,0.7-0.8,0.7-1.4c0-1.3-1.2-1.6-2.3-1.8C71.1,11.3,68.5,11,68.5,8.3z"/>
				<path d="M19.6,24.7c0-1.8-0.3-1.8-0.6-1.8c-0.4,0-0.7,0.1-1.2,0.1c-0.4,0-0.7-0.3-0.7-0.7c0-0.5,0.5-0.8,1-0.8
					c0.7,0,1,0.2,1.4,0.2c0.6,0,0.8-0.2,1.2-0.2c0.5,0,0.6,0.3,0.6,1.1v10.9c0,1.6,0.3,1.8,0.6,1.8c0.4,0,0.7-0.1,1-0.1
					c0.4,0,0.7,0.3,0.7,0.7c0,0.5-0.5,0.8-0.9,0.8c-0.7,0-1.2-0.2-2.2-0.2c-1,0-1.5,0.2-2.3,0.2c-0.5,0-0.9-0.3-0.9-0.8
					c0-0.4,0.3-0.7,0.7-0.7c0.3,0,0.6,0.1,1,0.1c0.5,0,0.6-0.6,0.6-1.8V24.7z"/>
				<path d="M25.4,31.3c-0.1,2.2,1.1,4.2,3.5,4.2c1.5,0,2.6-0.7,3-2.1c0.1-0.5,0.2-0.9,0.8-0.9c0.5,0,0.9,0.3,0.9,0.8
					c0,0.9-0.6,1.9-1.3,2.5c-0.9,0.9-2.3,1.3-3.5,1.3c-3.4,0-5.1-2.5-5.1-5.7c0-1.5,0.4-3,1.3-4.2c1-1.2,2.4-1.9,4-1.9
					c2.9,0,4.9,2.1,4.9,5c0,1.1,0,1.2-1,1.2H25.4z M31.9,29.8c-0.1-1.8-1.1-3.1-3-3.1c-1.9,0-3.2,1.3-3.3,3.1H31.9z"/>
				<path d="M43.5,33.2c0,0.7-0.2,2.3,0.8,2.3c0.9,0,0.8-1.4,0.8-2c0-0.6-0.1-1.3,0.7-1.3c0.6,0,0.8,0.4,0.8,0.9c0,1.6,0,2.4-0.5,3
					c-0.4,0.6-1.2,0.8-1.9,0.8c-1.1,0-2-0.5-2.2-1.6c-0.8,1.2-2.1,1.6-3.5,1.6c-0.9,0-1.8-0.2-2.6-0.6c-0.9-0.6-1.4-1.5-1.4-2.6
					c0-1.2,0.5-2.2,1.5-2.7c0.9-0.6,1.8-0.6,2.9-0.8c1.3-0.1,3-0.1,3-1.7c0-1.4-1.2-1.9-2.4-1.9c-0.6,0-1.2,0.2-1.7,0.5
					c-0.2,0.1-0.5,0.3-0.5,0.6c0,0.1,0.5,0.1,0.5,0.9c0,0.6-0.6,1-1.2,1c-0.8,0-1.3-0.6-1.3-1.4c0-0.9,0.6-1.7,1.3-2.2
					c0.8-0.5,1.9-0.8,2.8-0.8c1,0,2.1,0.2,3,0.9c1.1,0.8,1.2,2,1.2,3.3L43.5,33.2z M38.6,35.5c1,0,2.1-0.3,2.7-1.1
					c0.5-0.7,0.5-1.3,0.5-2.1c0-0.5,0-0.9,0-1.4c-0.8,0.8-2,0.8-3,0.9c-1.1,0.1-2.5,0.4-2.5,1.9C36.3,35,37.4,35.5,38.6,35.5z"/>
				<path d="M49.4,28.7c0-1.5-0.2-1.8-0.6-1.8c-0.4,0-0.7,0.1-1.2,0.1c-0.4,0-0.7-0.3-0.7-0.7c0-0.5,0.5-0.8,1-0.8
					c0.4,0,0.7,0.2,1.2,0.2c0.5,0,0.8-0.2,1.2-0.2c0.6,0,0.6,0.5,0.6,1.3h0c0.7-1.1,1.7-1.6,3-1.6c1.8,0,3.5,1.1,3.5,3
					c0,1.1-0.5,2.2-1.8,2.2c-0.6,0-1.2-0.4-1.2-1c0-0.5,0.4-0.9,0.9-0.9c0.1,0,0.2,0,0.3,0.1c0.1-0.2,0.1-0.3,0.1-0.5
					c0-1-1.1-1.5-1.9-1.5c-1.6,0-2.7,0.9-2.7,4.1v2.9c0,1.6,0.3,1.8,0.7,1.8c0.4,0,0.7-0.1,1-0.1c0.4,0,0.7,0.3,0.7,0.7
					c0,0.5-0.5,0.8-0.9,0.8c-0.7,0-1.3-0.2-2.2-0.2c-0.9,0-1.4,0.2-2.3,0.2c-0.5,0-1-0.3-1-0.8c0-0.4,0.3-0.7,0.7-0.7
					c0.3,0,0.6,0.1,1,0.1c0.5,0,0.6-0.3,0.6-1.8V28.7z"/>
				<path d="M60.2,28.7c0-1.5-0.1-1.8-0.6-1.8c-0.4,0-0.7,0.1-1,0.1c-0.4,0-0.7-0.3-0.7-0.7c0-0.4,0.4-0.8,0.8-0.8
					c0.5,0,0.6,0.2,1.2,0.2c0.6,0,0.8-0.2,1.4-0.2c0.5,0,0.5,0.5,0.5,1.3h0c0.8-1.1,2.3-1.6,3.6-1.6c1.1,0,2.3,0.4,3.1,1.2
					c0.9,0.9,1,2,1,3.1v4c0,1.3,0.1,1.8,0.6,1.8c0.4,0,0.7-0.1,1-0.1c0.4,0,0.7,0.3,0.7,0.7c0,0.5-0.3,0.8-0.9,0.8
					c-0.7,0-1.2-0.2-2.2-0.2c-1,0-1.5,0.2-2.3,0.2c-0.6,0-0.9-0.3-0.9-0.8c0-0.4,0.3-0.7,0.7-0.7c0.3,0,0.6,0.1,1,0.1
					c0.5,0,0.6-0.5,0.6-1.8v-3.2c0-1.4,0-1.8-0.3-2.5C67,27,65.9,26.6,65,26.6c-1,0-2.1,0.4-2.6,1.2c-0.3,0.4-0.6,0.9-0.6,3v2.5
					c0,1.3,0.1,1.8,0.6,1.8c0.4,0,0.7-0.1,1-0.1c0.4,0,0.7,0.3,0.7,0.7c0,0.5-0.3,0.8-0.9,0.8c-0.7,0-1.2-0.2-2.2-0.2
					c-1,0-1.5,0.2-2.3,0.2c-0.6,0-0.9-0.3-0.9-0.8c0-0.4,0.3-0.7,0.7-0.7c0.3,0,0.6,0.1,1,0.1c0.5,0,0.6-0.5,0.6-1.8V28.7z"/>
				<path d="M74.7,28.7c0-1.5-0.2-1.8-0.6-1.8c-0.4,0-0.7,0.1-1,0.1c-0.4,0-0.7-0.3-0.7-0.7c0-0.5,0.3-0.8,0.8-0.8
					c0.6,0,0.9,0.2,1.4,0.2c0.5,0,0.8-0.2,1.2-0.2c0.5,0,0.6,0.5,0.6,0.9v8c0,0.5,0.2,0.9,0.6,0.9c0.2,0,0.5-0.2,0.9-0.1
					c0.4,0,0.7,0.3,0.7,0.7c0,0.5-0.5,0.8-0.9,0.8c-0.7,0-1.3-0.2-2.2-0.2c-0.9,0-1.5,0.2-2.3,0.2c-0.4,0-0.7-0.4-0.7-0.8
					c0-0.4,0.3-0.7,0.7-0.7c0.3,0,0.6,0.1,1,0.1c0.5,0,0.6-0.5,0.6-1.8V28.7z M76.4,23.1c0,0.7-0.6,1.2-1.2,1.2
					c-0.7,0-1.2-0.6-1.2-1.2c0-0.7,0.6-1.2,1.2-1.2C75.8,21.9,76.4,22.4,76.4,23.1z"/>
				<path d="M81.5,28.7c0-1.5-0.1-1.8-0.6-1.8c-0.4,0-0.7,0.1-1,0.1c-0.4,0-0.7-0.3-0.7-0.7c0-0.4,0.4-0.8,0.8-0.8
					c0.5,0,0.6,0.2,1.2,0.2c0.6,0,0.8-0.2,1.4-0.2c0.5,0,0.5,0.5,0.5,1.3h0c0.8-1.1,2.3-1.6,3.6-1.6c1.1,0,2.3,0.4,3.1,1.2
					c0.9,0.9,1,2,1,3.1v4c0,1.3,0.1,1.8,0.6,1.8c0.4,0,0.7-0.1,1-0.1c0.4,0,0.7,0.3,0.7,0.7c0,0.5-0.3,0.8-0.9,0.8
					c-0.7,0-1.2-0.2-2.2-0.2c-1,0-1.5,0.2-2.3,0.2c-0.6,0-0.9-0.3-0.9-0.8c0-0.4,0.3-0.7,0.7-0.7c0.3,0,0.6,0.1,1,0.1
					c0.5,0,0.6-0.5,0.6-1.8v-3.2c0-1.4,0-1.8-0.3-2.5c-0.4-0.8-1.4-1.2-2.3-1.2c-1,0-2.1,0.4-2.6,1.2c-0.3,0.4-0.6,0.9-0.6,3v2.5
					c0,1.3,0.1,1.8,0.6,1.8c0.4,0,0.7-0.1,1-0.1c0.4,0,0.7,0.3,0.7,0.7c0,0.5-0.3,0.8-0.9,0.8c-0.7,0-1.2-0.2-2.2-0.2
					c-1,0-1.5,0.2-2.3,0.2c-0.6,0-0.9-0.3-0.9-0.8c0-0.4,0.3-0.7,0.7-0.7c0.3,0,0.6,0.1,1,0.1c0.5,0,0.6-0.5,0.6-1.8V28.7z"/>
				<path d="M98.2,33.8c1.2,0,2.4,0,3.6,0.4c1.4,0.5,2.5,1.5,2.5,3c0,2.8-3.4,3.4-5.6,3.4c-2.1,0-5.5-0.6-5.5-3.3
					c0-1.3,0.9-2.2,2-2.5v0c-1-0.3-1.8-0.9-1.8-2c0-1.1,0.8-1.9,1.8-2.2c-0.4-0.5-0.6-1.2-0.6-1.9c0-2.2,2.1-3.5,4.1-3.5
					c0.4,0,0.9,0,1.3,0.2c-0.1-1.4,1.2-2.2,2.5-2.2c1.2,0,2.4,0.6,2.4,2c0,0.6-0.5,1.2-1.2,1.2c-0.5,0-0.9-0.4-0.9-0.8
					c0-0.3,0.2-0.5,0.5-0.7c-0.2-0.3-0.5-0.4-0.9-0.4c-0.9,0-1.2,0.7-1.2,1.5c1.1,0.6,1.7,1.8,1.7,3c0,2.3-2,3.6-4.1,3.6
					c-0.9,0-1.7-0.2-2.5-0.6c-0.2-0.1-0.4-0.2-0.6-0.2c-0.5,0-0.8,0.5-0.8,0.9c0,1.1,1.5,1.1,2.3,1.1H98.2z M96.2,35.7
					c-0.6,0.3-1.1,0.8-1.1,1.6c0,0.8,0.7,1.4,1.4,1.6c0.7,0.2,1.6,0.3,2.3,0.3c1.2,0,3.7-0.3,3.7-2c0-1.7-2.4-2-3.7-2
					C98.1,35.3,96.9,35.4,96.2,35.7z M101.4,28.8c0-1.4-1.2-2.2-2.5-2.2c-1.3,0-2.4,0.9-2.4,2.2c0,1.4,1.1,2.2,2.4,2.2
					C100.2,31,101.4,30.3,101.4,28.8z"/>
				<path d="M25.2,53.8c0.2-0.6,0.2-1.3,1-1.3c0.5,0,0.8,0.4,0.8,0.8c0,0.8-0.6,2-1.2,2.6c-0.9,1-2.2,1.4-3.4,1.4
					c-3.3,0-5-2.7-5-5.7c0-3.3,1.7-6.1,5.3-6.1c0.9,0,1.9,0.3,2.6,0.8c0.8,0.6,1.4,1.6,1.4,2.6c0,1-0.5,2-1.6,2
					c-0.7,0-1.3-0.5-1.3-1.2c0-0.6,0.5-1,1.1-1c0-1.1-1.4-1.7-2.4-1.7c-2.4,0-3.4,2.3-3.4,4.4c0,2.1,0.8,4.4,3.3,4.4
					C23.9,55.9,24.9,55,25.2,53.8z"/>
				<path d="M33.3,45.5c1.6,0,3,0.4,3.9,1.6c0.9,1.2,1.4,2.8,1.4,4.2c0,3.3-1.8,5.9-5.3,5.9c-3.4,0-5.1-2.7-5.1-5.9
					C28.2,48.3,29.8,45.5,33.3,45.5z M33.3,55.9c2.7,0,3.5-2.3,3.5-4.6c0-1-0.2-2.2-0.8-3.1c-0.6-0.9-1.6-1.2-2.6-1.2
					c-1.2,0-2.1,0.4-2.7,1.5c-0.5,0.8-0.7,2-0.7,2.9C30,53.5,30.8,55.9,33.3,55.9z"/>
				<path d="M49.6,53.8c0,1.5,0.2,1.8,0.6,1.8c0.4,0,0.7-0.1,1-0.1c0.4,0,0.7,0.3,0.7,0.7c0,0.5-0.3,0.8-0.7,0.8
					c-0.4,0-0.8-0.2-1.3-0.2c-0.5,0-0.6,0.2-1.2,0.2c-0.6,0-0.8-0.2-0.8-1v-0.2h0c-0.7,1.1-2,1.6-3.3,1.6c-3.4,0-5-2.8-5-6
					c0-3,1.6-5.8,4.9-5.8c1.3,0,2.6,0.4,3.3,1.6h0V45c0-1.6-0.2-1.8-0.6-1.8c-0.4,0-0.7,0.1-1,0.1c-0.4,0-0.7-0.3-0.7-0.7
					c0-0.5,0.4-0.8,0.8-0.8c0.6,0,0.9,0.2,1.5,0.2c0.6,0,0.9-0.2,1.3-0.2c0.2,0,0.4,0.2,0.4,0.9V53.8z M41.4,51.5
					c0,2.1,0.9,4.4,3.3,4.4c1.1,0,2.2-0.5,2.6-1.5c0.4-0.9,0.5-2,0.5-3c0-1-0.1-2.3-0.7-3.1c-0.6-0.9-1.5-1.2-2.6-1.2
					C42.2,47,41.4,49.4,41.4,51.5z"/>
				<path d="M54,51.7c-0.1,2.2,1.1,4.2,3.5,4.2c1.5,0,2.6-0.7,3-2.1c0.1-0.5,0.2-0.9,0.8-0.9c0.5,0,0.9,0.3,0.9,0.8
					c0,0.9-0.6,1.9-1.3,2.5c-0.9,0.9-2.3,1.2-3.5,1.2c-3.4,0-5.1-2.5-5.1-5.7c0-1.5,0.4-3,1.3-4.2c1-1.2,2.4-1.9,4-1.9
					c2.9,0,4.9,2.1,4.9,5c0,1.1,0,1.2-1,1.2H54z M60.6,50.1c-0.1-1.8-1.1-3.1-3-3.1c-1.9,0-3.2,1.3-3.3,3.1H60.6z"/>
			</g>
		</g>
	</g>
	<path d="M11.7,9.4L14,7.1c0.3-0.3,0.2-0.6-0.1-0.9c-0.3-0.3-0.6-0.4-0.9-0.1l-2.3,2.3L8.5,6.3l2.3-2.3c0.3-0.3,0.2-0.6-0.1-0.9
		C10.5,2.8,10.1,2.7,9.8,3L7.5,5.3L5.3,3C5,2.8,4.6,2.8,4.3,3.1C4.1,3.3,4,3.7,4.3,4l2.3,2.3L4.4,8.4L2.1,6.2
		c-0.3-0.3-0.7-0.2-0.9,0c-0.3,0.3-0.3,0.7,0,0.9l2.3,2.3l-2.3,2.3c-0.3,0.3-0.2,0.7,0,0.9c0.3,0.3,0.7,0.3,0.9,0l2.3-2.3l2.2,2.2
		l-2.3,2.3c-0.3,0.3-0.2,0.7,0,0.9c0.3,0.3,0.7,0.3,0.9,0l2.3-2.3l2.3,2.3c0.3,0.3,0.6,0.2,0.9-0.1c0.3-0.3,0.4-0.6,0.1-0.9
		l-2.3-2.3l2.2-2.2l2.3,2.3c0.3,0.3,0.6,0.2,0.9-0.1c0.3-0.3,0.4-0.6,0.1-0.9L11.7,9.4z M7.5,11.6L5.3,9.4l2.2-2.2l2.2,2.2L7.5,11.6
		z"/>
</g>
</svg>
