<?xml version="1.0" encoding="utf-8"?>
<!-- Generator: Adobe Illustrator 18.1.1, SVG Export Plug-In . SVG Version: 6.00 Build 0)  -->
<svg version="1.1" id="Layer_1" xmlns="http://www.w3.org/2000/svg" xmlns:xlink="http://www.w3.org/1999/xlink" x="0px" y="0px"
	 viewBox="0 0 792 612" enable-background="new 0 0 792 612" xml:space="preserve">
<path d="M398.7,545.4c-126.5,0-238-80.2-278.8-201.3l-39.4,13.6C126.7,495,254.6,587.5,398.7,587.5S672.1,495,717,357.7l-39.4-13.6
	C636.7,463.8,525.2,545.4,398.7,545.4"/>
<path d="M526.6,231.2v-43.5c-23.1-9.5-40.8-31.3-40.8-58.5s16.3-49,40.8-58.5V27.2c-47.6,9.5-83,51.7-83,102
	C445,179.5,480.3,221.7,526.6,231.2"/>
<path d="M653,129.2c0-50.3-35.4-92.5-83-102v43.5c23.1,9.5,40.8,31.3,40.8,58.5s-16.3,49-40.8,58.5v43.5
	C617.7,221.7,653,179.5,653,129.2"/>
<polygon points="179.8,228.5 249.1,159.1 318.5,228.5 348.4,198.6 279,129.2 348.4,59.8 318.5,29.9 249.1,99.3 179.8,29.9 
	149.8,59.8 219.2,129.2 149.8,198.6 "/>
</svg>
