<?xml version="1.0" encoding="utf-8"?>
<!-- Generator: Adobe Illustrator 18.1.1, SVG Export Plug-In . SVG Version: 6.00 Build 0)  -->
<svg version="1.1" id="Layer_1" xmlns="http://www.w3.org/2000/svg" xmlns:xlink="http://www.w3.org/1999/xlink" x="0px" y="0px"
	 viewBox="0 0 113 21" enable-background="new 0 0 113 21" xml:space="preserve">
<g>
	<path d="M0.5,11.7c0-5.5,3.6-9,8.7-9c5.4,0,8.2,3.8,8.2,8.3c0,5.5-3.6,9-8.7,9C3.3,20,0.5,16.1,0.5,11.7z M12,11.7
		C12,7.3,11.1,4,8.9,4C6.6,4,6,7.7,6,11c0,4.4,0.8,7.7,3.1,7.7C11.4,18.7,12,15,12,11.7z"/>
	<path d="M19.7,6.5c0-3.8,2.7-5.2,5.8-5.2c1.6,0,2.8,0.4,3.8,1.2C30.5,1.5,32.1,1,33.8,1c2.7,0,4,0.9,4,2.5c0,0.7-0.4,1.3-0.9,1.6
		h-2.5c0.1-0.3,0.1-0.7,0.1-1.2c0-0.8-0.1-1.7-0.8-1.7c-0.7,0-0.9,0.5-0.9,1.4v3.1h2.7v1.4h-2.7v9.3c0,1.1,0.5,1.1,1.9,1.3v1h-8v-1
		c0.9-0.1,1.2-0.1,1.2-0.9V8.1h-3.2v9.7c0,0.7,0.3,0.8,1.2,0.9v1h-7.4v-1c0.9-0.1,1.3-0.1,1.3-0.9V8.1H18V7.1l1.7-0.4V6.5z
		 M28.2,4.4c-0.3-1.1-0.9-2-2.1-2c-1,0-1.4,0.8-1.4,2.2v2.1h3.2V6.5C27.9,5.7,28,5,28.2,4.4z"/>
	<path d="M36.2,18.7L36,15.5h1.2c0.4,1.9,1.7,3.4,3.6,3.4c1.1,0,1.9-0.5,1.9-1.5c0-1.2-0.9-1.5-2.5-2c-2.8-0.8-4.3-2-4.3-4.5
		c0-2.8,2.1-4.4,5.1-4.4c1.6,0,3.2,0.4,4.2,1.1v2.9h-1.1c-0.2-1.5-1.3-2.9-3-2.9c-1,0-1.6,0.5-1.6,1.4c0,1,0.7,1.3,2.1,1.8
		c3,1,4.6,2,4.6,4.7c0,2.9-2.2,4.5-5.5,4.5C38.8,20,37.2,19.5,36.2,18.7z"/>
	<path d="M55.4,16.7c1.4,0,2.4-0.4,3.1-1.5l0.6,0.4c-0.8,3.1-2.8,4.4-5.6,4.4c-3.4,0-6-2.4-6-6.3c0-4.1,2.7-7.1,6.7-7.1
		c2.4,0,4.5,0.9,4.5,3.1c0,1-0.6,1.6-1.1,1.8h-2.5c0.1-0.6,0.1-1,0.1-1.4c0-1.4-0.4-2.4-1.4-2.4c-1.3,0-2.1,1.8-2.1,4.2
		C51.7,14.9,53,16.7,55.4,16.7z"/>
	<path d="M65.9,17.4c0,1.1,0.5,1.1,1.9,1.3v1h-8v-1c0.9-0.1,1.3-0.1,1.3-0.9V9.5l-1.3-0.8V8L65,6.5h1l-0.1,3.7
		c0.9-2.9,1.8-3.7,3.3-3.7c0.6,0,1,0.2,1.3,0.4v3.7h-0.6c-1.5,0-2.9,0-4,0.7V17.4z"/>
	<path d="M83,11.9v0.6h-7.6c0,2.6,1.5,4.3,3.6,4.3c1.5,0,2.7-0.5,3.6-1.7l0.5,0.3c-0.7,2.8-2.6,4.6-5.7,4.6c-3.6,0-6.4-2.3-6.4-6.4
		c0-4.3,3.1-7,6.6-7C81.2,6.5,83,8.7,83,11.9z M75.4,11.3h3.4c0-2.4-0.4-3.7-1.5-3.7C76.1,7.6,75.5,9.1,75.4,11.3z"/>
	<path d="M96,11.9v0.6h-7.6c0,2.6,1.5,4.3,3.6,4.3c1.5,0,2.7-0.5,3.6-1.7l0.5,0.3c-0.7,2.8-2.6,4.6-5.7,4.6c-3.6,0-6.4-2.3-6.4-6.4
		c0-4.3,3.1-7,6.6-7C94.2,6.5,96,8.7,96,11.9z M88.5,11.3h3.4c0-2.4-0.4-3.7-1.5-3.7C89.1,7.6,88.6,9.1,88.5,11.3z"/>
	<path d="M106.3,10.9c0-0.9-0.3-1.5-1.5-1.5c-0.7,0-1.2,0.1-1.8,0.3v8.2c0,0.7,0.3,0.8,1.2,0.9v1h-7.4v-1c0.9-0.1,1.3-0.1,1.3-0.9
		V9.5l-1.3-0.8V8l5.3-1.4h1L103,8.9c0.9-1.1,2.2-2.4,4.5-2.4c2.3,0,3.7,1.3,3.7,3.9v7.4c0,0.7,0.4,0.8,1.3,0.9v1h-7.4v-1
		c0.9-0.1,1.2-0.1,1.2-0.9V10.9z"/>
</g>
</svg>
